solid exported
	facet normal 1 0 0
		outer loop
			vertex -4.399999998509884 7 0.10999999940395355
			vertex -4.399999998509884 0 0.10999999940395355
			vertex -4.399999998509884 7 -0.10999999940395355
		endloop
	endfacet
	facet normal 1 0 0
		outer loop
			vertex -4.399999998509884 0 0.10999999940395355
			vertex -4.399999998509884 0 -0.10999999940395355
			vertex -4.399999998509884 7 -0.10999999940395355
		endloop
	endfacet
	facet normal -1 0 0
		outer loop
			vertex -4.600000001490116 7 -0.10999999940395355
			vertex -4.600000001490116 0 -0.10999999940395355
			vertex -4.600000001490116 7 0.10999999940395355
		endloop
	endfacet
	facet normal -1 0 0
		outer loop
			vertex -4.600000001490116 0 -0.10999999940395355
			vertex -4.600000001490116 0 0.10999999940395355
			vertex -4.600000001490116 7 0.10999999940395355
		endloop
	endfacet
	facet normal 0 1 0
		outer loop
			vertex -4.600000001490116 7 -0.10999999940395355
			vertex -4.600000001490116 7 0.10999999940395355
			vertex -4.399999998509884 7 -0.10999999940395355
		endloop
	endfacet
	facet normal 0 1 0
		outer loop
			vertex -4.600000001490116 7 0.10999999940395355
			vertex -4.399999998509884 7 0.10999999940395355
			vertex -4.399999998509884 7 -0.10999999940395355
		endloop
	endfacet
	facet normal 0 -1 0
		outer loop
			vertex -4.600000001490116 0 0.10999999940395355
			vertex -4.600000001490116 0 -0.10999999940395355
			vertex -4.399999998509884 0 0.10999999940395355
		endloop
	endfacet
	facet normal 0 -1 0
		outer loop
			vertex -4.600000001490116 0 -0.10999999940395355
			vertex -4.399999998509884 0 -0.10999999940395355
			vertex -4.399999998509884 0 0.10999999940395355
		endloop
	endfacet
	facet normal 0 0 1
		outer loop
			vertex -4.600000001490116 7 0.10999999940395355
			vertex -4.600000001490116 0 0.10999999940395355
			vertex -4.399999998509884 7 0.10999999940395355
		endloop
	endfacet
	facet normal 0 0 1
		outer loop
			vertex -4.600000001490116 0 0.10999999940395355
			vertex -4.399999998509884 0 0.10999999940395355
			vertex -4.399999998509884 7 0.10999999940395355
		endloop
	endfacet
	facet normal 0 0 -1
		outer loop
			vertex -4.399999998509884 7 -0.10999999940395355
			vertex -4.399999998509884 0 -0.10999999940395355
			vertex -4.600000001490116 7 -0.10999999940395355
		endloop
	endfacet
	facet normal 0 0 -1
		outer loop
			vertex -4.399999998509884 0 -0.10999999940395355
			vertex -4.600000001490116 0 -0.10999999940395355
			vertex -4.600000001490116 7 -0.10999999940395355
		endloop
	endfacet
	facet normal 1 0 0
		outer loop
			vertex 4.600000001490116 7 0.10999999940395355
			vertex 4.600000001490116 0 0.10999999940395355
			vertex 4.600000001490116 7 -0.10999999940395355
		endloop
	endfacet
	facet normal 1 0 0
		outer loop
			vertex 4.600000001490116 0 0.10999999940395355
			vertex 4.600000001490116 0 -0.10999999940395355
			vertex 4.600000001490116 7 -0.10999999940395355
		endloop
	endfacet
	facet normal -1 0 0
		outer loop
			vertex 4.399999998509884 7 -0.10999999940395355
			vertex 4.399999998509884 0 -0.10999999940395355
			vertex 4.399999998509884 7 0.10999999940395355
		endloop
	endfacet
	facet normal -1 0 0
		outer loop
			vertex 4.399999998509884 0 -0.10999999940395355
			vertex 4.399999998509884 0 0.10999999940395355
			vertex 4.399999998509884 7 0.10999999940395355
		endloop
	endfacet
	facet normal 0 1 0
		outer loop
			vertex 4.399999998509884 7 -0.10999999940395355
			vertex 4.399999998509884 7 0.10999999940395355
			vertex 4.600000001490116 7 -0.10999999940395355
		endloop
	endfacet
	facet normal 0 1 0
		outer loop
			vertex 4.399999998509884 7 0.10999999940395355
			vertex 4.600000001490116 7 0.10999999940395355
			vertex 4.600000001490116 7 -0.10999999940395355
		endloop
	endfacet
	facet normal 0 -1 0
		outer loop
			vertex 4.399999998509884 0 0.10999999940395355
			vertex 4.399999998509884 0 -0.10999999940395355
			vertex 4.600000001490116 0 0.10999999940395355
		endloop
	endfacet
	facet normal 0 -1 0
		outer loop
			vertex 4.399999998509884 0 -0.10999999940395355
			vertex 4.600000001490116 0 -0.10999999940395355
			vertex 4.600000001490116 0 0.10999999940395355
		endloop
	endfacet
	facet normal 0 0 1
		outer loop
			vertex 4.399999998509884 7 0.10999999940395355
			vertex 4.399999998509884 0 0.10999999940395355
			vertex 4.600000001490116 7 0.10999999940395355
		endloop
	endfacet
	facet normal 0 0 1
		outer loop
			vertex 4.399999998509884 0 0.10999999940395355
			vertex 4.600000001490116 0 0.10999999940395355
			vertex 4.600000001490116 7 0.10999999940395355
		endloop
	endfacet
	facet normal 0 0 -1
		outer loop
			vertex 4.600000001490116 7 -0.10999999940395355
			vertex 4.600000001490116 0 -0.10999999940395355
			vertex 4.399999998509884 7 -0.10999999940395355
		endloop
	endfacet
	facet normal 0 0 -1
		outer loop
			vertex 4.600000001490116 0 -0.10999999940395355
			vertex 4.399999998509884 0 -0.10999999940395355
			vertex 4.399999998509884 7 -0.10999999940395355
		endloop
	endfacet
	facet normal 1 0 0
		outer loop
			vertex 4.599999904632568 7.100000001490116 0.10999999940395355
			vertex 4.599999904632568 6.899999998509884 0.10999999940395355
			vertex 4.599999904632568 7.100000001490116 -0.10999999940395355
		endloop
	endfacet
	facet normal 1 0 0
		outer loop
			vertex 4.599999904632568 6.899999998509884 0.10999999940395355
			vertex 4.599999904632568 6.899999998509884 -0.10999999940395355
			vertex 4.599999904632568 7.100000001490116 -0.10999999940395355
		endloop
	endfacet
	facet normal -1 0 0
		outer loop
			vertex -4.599999904632568 7.100000001490116 -0.10999999940395355
			vertex -4.599999904632568 6.899999998509884 -0.10999999940395355
			vertex -4.599999904632568 7.100000001490116 0.10999999940395355
		endloop
	endfacet
	facet normal -1 0 0
		outer loop
			vertex -4.599999904632568 6.899999998509884 -0.10999999940395355
			vertex -4.599999904632568 6.899999998509884 0.10999999940395355
			vertex -4.599999904632568 7.100000001490116 0.10999999940395355
		endloop
	endfacet
	facet normal 0 1 0
		outer loop
			vertex -4.599999904632568 7.100000001490116 -0.10999999940395355
			vertex -4.599999904632568 7.100000001490116 0.10999999940395355
			vertex 4.599999904632568 7.100000001490116 -0.10999999940395355
		endloop
	endfacet
	facet normal 0 1 0
		outer loop
			vertex -4.599999904632568 7.100000001490116 0.10999999940395355
			vertex 4.599999904632568 7.100000001490116 0.10999999940395355
			vertex 4.599999904632568 7.100000001490116 -0.10999999940395355
		endloop
	endfacet
	facet normal 0 -1 0
		outer loop
			vertex -4.599999904632568 6.899999998509884 0.10999999940395355
			vertex -4.599999904632568 6.899999998509884 -0.10999999940395355
			vertex 4.599999904632568 6.899999998509884 0.10999999940395355
		endloop
	endfacet
	facet normal 0 -1 0
		outer loop
			vertex -4.599999904632568 6.899999998509884 -0.10999999940395355
			vertex 4.599999904632568 6.899999998509884 -0.10999999940395355
			vertex 4.599999904632568 6.899999998509884 0.10999999940395355
		endloop
	endfacet
	facet normal 0 0 1
		outer loop
			vertex -4.599999904632568 7.100000001490116 0.10999999940395355
			vertex -4.599999904632568 6.899999998509884 0.10999999940395355
			vertex 4.599999904632568 7.100000001490116 0.10999999940395355
		endloop
	endfacet
	facet normal 0 0 1
		outer loop
			vertex -4.599999904632568 6.899999998509884 0.10999999940395355
			vertex 4.599999904632568 6.899999998509884 0.10999999940395355
			vertex 4.599999904632568 7.100000001490116 0.10999999940395355
		endloop
	endfacet
	facet normal 0 0 -1
		outer loop
			vertex 4.599999904632568 7.100000001490116 -0.10999999940395355
			vertex 4.599999904632568 6.899999998509884 -0.10999999940395355
			vertex -4.599999904632568 7.100000001490116 -0.10999999940395355
		endloop
	endfacet
	facet normal 0 0 -1
		outer loop
			vertex 4.599999904632568 6.899999998509884 -0.10999999940395355
			vertex -4.599999904632568 6.899999998509884 -0.10999999940395355
			vertex -4.599999904632568 7.100000001490116 -0.10999999940395355
		endloop
	endfacet
	facet normal 1 0 0
		outer loop
			vertex 4.599999904632568 0.10000000149011612 0.10999999940395355
			vertex 4.599999904632568 -0.10000000149011612 0.10999999940395355
			vertex 4.599999904632568 0.10000000149011612 -0.10999999940395355
		endloop
	endfacet
	facet normal 1 0 0
		outer loop
			vertex 4.599999904632568 -0.10000000149011612 0.10999999940395355
			vertex 4.599999904632568 -0.10000000149011612 -0.10999999940395355
			vertex 4.599999904632568 0.10000000149011612 -0.10999999940395355
		endloop
	endfacet
	facet normal -1 0 0
		outer loop
			vertex -4.599999904632568 0.10000000149011612 -0.10999999940395355
			vertex -4.599999904632568 -0.10000000149011612 -0.10999999940395355
			vertex -4.599999904632568 0.10000000149011612 0.10999999940395355
		endloop
	endfacet
	facet normal -1 0 0
		outer loop
			vertex -4.599999904632568 -0.10000000149011612 -0.10999999940395355
			vertex -4.599999904632568 -0.10000000149011612 0.10999999940395355
			vertex -4.599999904632568 0.10000000149011612 0.10999999940395355
		endloop
	endfacet
	facet normal 0 1 0
		outer loop
			vertex -4.599999904632568 0.10000000149011612 -0.10999999940395355
			vertex -4.599999904632568 0.10000000149011612 0.10999999940395355
			vertex 4.599999904632568 0.10000000149011612 -0.10999999940395355
		endloop
	endfacet
	facet normal 0 1 0
		outer loop
			vertex -4.599999904632568 0.10000000149011612 0.10999999940395355
			vertex 4.599999904632568 0.10000000149011612 0.10999999940395355
			vertex 4.599999904632568 0.10000000149011612 -0.10999999940395355
		endloop
	endfacet
	facet normal 0 -1 0
		outer loop
			vertex -4.599999904632568 -0.10000000149011612 0.10999999940395355
			vertex -4.599999904632568 -0.10000000149011612 -0.10999999940395355
			vertex 4.599999904632568 -0.10000000149011612 0.10999999940395355
		endloop
	endfacet
	facet normal 0 -1 0
		outer loop
			vertex -4.599999904632568 -0.10000000149011612 -0.10999999940395355
			vertex 4.599999904632568 -0.10000000149011612 -0.10999999940395355
			vertex 4.599999904632568 -0.10000000149011612 0.10999999940395355
		endloop
	endfacet
	facet normal 0 0 1
		outer loop
			vertex -4.599999904632568 0.10000000149011612 0.10999999940395355
			vertex -4.599999904632568 -0.10000000149011612 0.10999999940395355
			vertex 4.599999904632568 0.10000000149011612 0.10999999940395355
		endloop
	endfacet
	facet normal 0 0 1
		outer loop
			vertex -4.599999904632568 -0.10000000149011612 0.10999999940395355
			vertex 4.599999904632568 -0.10000000149011612 0.10999999940395355
			vertex 4.599999904632568 0.10000000149011612 0.10999999940395355
		endloop
	endfacet
	facet normal 0 0 -1
		outer loop
			vertex 4.599999904632568 0.10000000149011612 -0.10999999940395355
			vertex 4.599999904632568 -0.10000000149011612 -0.10999999940395355
			vertex -4.599999904632568 0.10000000149011612 -0.10999999940395355
		endloop
	endfacet
	facet normal 0 0 -1
		outer loop
			vertex 4.599999904632568 -0.10000000149011612 -0.10999999940395355
			vertex -4.599999904632568 -0.10000000149011612 -0.10999999940395355
			vertex -4.599999904632568 0.10000000149011612 -0.10999999940395355
		endloop
	endfacet
endsolid exported
