solid exported
	facet normal 1 0 0
		outer loop
			vertex -2.580000002682209 2.349999952316284 0.11999999731779099
			vertex -2.580000002682209 4.768371586472142e-8 0.11999999731779099
			vertex -2.580000002682209 2.349999952316284 -0.11999999731779099
		endloop
	endfacet
	facet normal 1 0 0
		outer loop
			vertex -2.580000002682209 4.768371586472142e-8 0.11999999731779099
			vertex -2.580000002682209 4.768371586472142e-8 -0.11999999731779099
			vertex -2.580000002682209 2.349999952316284 -0.11999999731779099
		endloop
	endfacet
	facet normal -1 0 0
		outer loop
			vertex -2.819999997317791 2.349999952316284 -0.11999999731779099
			vertex -2.819999997317791 4.768371586472142e-8 -0.11999999731779099
			vertex -2.819999997317791 2.349999952316284 0.11999999731779099
		endloop
	endfacet
	facet normal -1 0 0
		outer loop
			vertex -2.819999997317791 4.768371586472142e-8 -0.11999999731779099
			vertex -2.819999997317791 4.768371586472142e-8 0.11999999731779099
			vertex -2.819999997317791 2.349999952316284 0.11999999731779099
		endloop
	endfacet
	facet normal 0 1 0
		outer loop
			vertex -2.819999997317791 2.349999952316284 -0.11999999731779099
			vertex -2.819999997317791 2.349999952316284 0.11999999731779099
			vertex -2.580000002682209 2.349999952316284 -0.11999999731779099
		endloop
	endfacet
	facet normal 0 1 0
		outer loop
			vertex -2.819999997317791 2.349999952316284 0.11999999731779099
			vertex -2.580000002682209 2.349999952316284 0.11999999731779099
			vertex -2.580000002682209 2.349999952316284 -0.11999999731779099
		endloop
	endfacet
	facet normal 0 -1 0
		outer loop
			vertex -2.819999997317791 4.768371586472142e-8 0.11999999731779099
			vertex -2.819999997317791 4.768371586472142e-8 -0.11999999731779099
			vertex -2.580000002682209 4.768371586472142e-8 0.11999999731779099
		endloop
	endfacet
	facet normal 0 -1 0
		outer loop
			vertex -2.819999997317791 4.768371586472142e-8 -0.11999999731779099
			vertex -2.580000002682209 4.768371586472142e-8 -0.11999999731779099
			vertex -2.580000002682209 4.768371586472142e-8 0.11999999731779099
		endloop
	endfacet
	facet normal 0 0 1
		outer loop
			vertex -2.819999997317791 2.349999952316284 0.11999999731779099
			vertex -2.819999997317791 4.768371586472142e-8 0.11999999731779099
			vertex -2.580000002682209 2.349999952316284 0.11999999731779099
		endloop
	endfacet
	facet normal 0 0 1
		outer loop
			vertex -2.819999997317791 4.768371586472142e-8 0.11999999731779099
			vertex -2.580000002682209 4.768371586472142e-8 0.11999999731779099
			vertex -2.580000002682209 2.349999952316284 0.11999999731779099
		endloop
	endfacet
	facet normal 0 0 -1
		outer loop
			vertex -2.580000002682209 2.349999952316284 -0.11999999731779099
			vertex -2.580000002682209 4.768371586472142e-8 -0.11999999731779099
			vertex -2.819999997317791 2.349999952316284 -0.11999999731779099
		endloop
	endfacet
	facet normal 0 0 -1
		outer loop
			vertex -2.580000002682209 4.768371586472142e-8 -0.11999999731779099
			vertex -2.819999997317791 4.768371586472142e-8 -0.11999999731779099
			vertex -2.819999997317791 2.349999952316284 -0.11999999731779099
		endloop
	endfacet
	facet normal 1 0 0
		outer loop
			vertex 2.819999997317791 2.349999952316284 0.11999999731779099
			vertex 2.819999997317791 4.768371586472142e-8 0.11999999731779099
			vertex 2.819999997317791 2.349999952316284 -0.11999999731779099
		endloop
	endfacet
	facet normal 1 0 0
		outer loop
			vertex 2.819999997317791 4.768371586472142e-8 0.11999999731779099
			vertex 2.819999997317791 4.768371586472142e-8 -0.11999999731779099
			vertex 2.819999997317791 2.349999952316284 -0.11999999731779099
		endloop
	endfacet
	facet normal -1 0 0
		outer loop
			vertex 2.580000002682209 2.349999952316284 -0.11999999731779099
			vertex 2.580000002682209 4.768371586472142e-8 -0.11999999731779099
			vertex 2.580000002682209 2.349999952316284 0.11999999731779099
		endloop
	endfacet
	facet normal -1 0 0
		outer loop
			vertex 2.580000002682209 4.768371586472142e-8 -0.11999999731779099
			vertex 2.580000002682209 4.768371586472142e-8 0.11999999731779099
			vertex 2.580000002682209 2.349999952316284 0.11999999731779099
		endloop
	endfacet
	facet normal 0 1 0
		outer loop
			vertex 2.580000002682209 2.349999952316284 -0.11999999731779099
			vertex 2.580000002682209 2.349999952316284 0.11999999731779099
			vertex 2.819999997317791 2.349999952316284 -0.11999999731779099
		endloop
	endfacet
	facet normal 0 1 0
		outer loop
			vertex 2.580000002682209 2.349999952316284 0.11999999731779099
			vertex 2.819999997317791 2.349999952316284 0.11999999731779099
			vertex 2.819999997317791 2.349999952316284 -0.11999999731779099
		endloop
	endfacet
	facet normal 0 -1 0
		outer loop
			vertex 2.580000002682209 4.768371586472142e-8 0.11999999731779099
			vertex 2.580000002682209 4.768371586472142e-8 -0.11999999731779099
			vertex 2.819999997317791 4.768371586472142e-8 0.11999999731779099
		endloop
	endfacet
	facet normal 0 -1 0
		outer loop
			vertex 2.580000002682209 4.768371586472142e-8 -0.11999999731779099
			vertex 2.819999997317791 4.768371586472142e-8 -0.11999999731779099
			vertex 2.819999997317791 4.768371586472142e-8 0.11999999731779099
		endloop
	endfacet
	facet normal 0 0 1
		outer loop
			vertex 2.580000002682209 2.349999952316284 0.11999999731779099
			vertex 2.580000002682209 4.768371586472142e-8 0.11999999731779099
			vertex 2.819999997317791 2.349999952316284 0.11999999731779099
		endloop
	endfacet
	facet normal 0 0 1
		outer loop
			vertex 2.580000002682209 4.768371586472142e-8 0.11999999731779099
			vertex 2.819999997317791 4.768371586472142e-8 0.11999999731779099
			vertex 2.819999997317791 2.349999952316284 0.11999999731779099
		endloop
	endfacet
	facet normal 0 0 -1
		outer loop
			vertex 2.819999997317791 2.349999952316284 -0.11999999731779099
			vertex 2.819999997317791 4.768371586472142e-8 -0.11999999731779099
			vertex 2.580000002682209 2.349999952316284 -0.11999999731779099
		endloop
	endfacet
	facet normal 0 0 -1
		outer loop
			vertex 2.819999997317791 4.768371586472142e-8 -0.11999999731779099
			vertex 2.580000002682209 4.768371586472142e-8 -0.11999999731779099
			vertex 2.580000002682209 2.349999952316284 -0.11999999731779099
		endloop
	endfacet
	facet normal 1 0 0
		outer loop
			vertex 2.7750000953674316 2.2900000017881394 0.20999999344348907
			vertex 2.7750000953674316 1.9499999982118608 0.20999999344348907
			vertex 2.7750000953674316 2.2900000017881394 -0.20999999344348907
		endloop
	endfacet
	facet normal 1 0 0
		outer loop
			vertex 2.7750000953674316 1.9499999982118608 0.20999999344348907
			vertex 2.7750000953674316 1.9499999982118608 -0.20999999344348907
			vertex 2.7750000953674316 2.2900000017881394 -0.20999999344348907
		endloop
	endfacet
	facet normal -1 0 0
		outer loop
			vertex -2.7750000953674316 2.2900000017881394 -0.20999999344348907
			vertex -2.7750000953674316 1.9499999982118608 -0.20999999344348907
			vertex -2.7750000953674316 2.2900000017881394 0.20999999344348907
		endloop
	endfacet
	facet normal -1 0 0
		outer loop
			vertex -2.7750000953674316 1.9499999982118608 -0.20999999344348907
			vertex -2.7750000953674316 1.9499999982118608 0.20999999344348907
			vertex -2.7750000953674316 2.2900000017881394 0.20999999344348907
		endloop
	endfacet
	facet normal 0 1 0
		outer loop
			vertex -2.7750000953674316 2.2900000017881394 -0.20999999344348907
			vertex -2.7750000953674316 2.2900000017881394 0.20999999344348907
			vertex 2.7750000953674316 2.2900000017881394 -0.20999999344348907
		endloop
	endfacet
	facet normal 0 1 0
		outer loop
			vertex -2.7750000953674316 2.2900000017881394 0.20999999344348907
			vertex 2.7750000953674316 2.2900000017881394 0.20999999344348907
			vertex 2.7750000953674316 2.2900000017881394 -0.20999999344348907
		endloop
	endfacet
	facet normal 0 -1 0
		outer loop
			vertex -2.7750000953674316 1.9499999982118608 0.20999999344348907
			vertex -2.7750000953674316 1.9499999982118608 -0.20999999344348907
			vertex 2.7750000953674316 1.9499999982118608 0.20999999344348907
		endloop
	endfacet
	facet normal 0 -1 0
		outer loop
			vertex -2.7750000953674316 1.9499999982118608 -0.20999999344348907
			vertex 2.7750000953674316 1.9499999982118608 -0.20999999344348907
			vertex 2.7750000953674316 1.9499999982118608 0.20999999344348907
		endloop
	endfacet
	facet normal 0 0 1
		outer loop
			vertex -2.7750000953674316 2.2900000017881394 0.20999999344348907
			vertex -2.7750000953674316 1.9499999982118608 0.20999999344348907
			vertex 2.7750000953674316 2.2900000017881394 0.20999999344348907
		endloop
	endfacet
	facet normal 0 0 1
		outer loop
			vertex -2.7750000953674316 1.9499999982118608 0.20999999344348907
			vertex 2.7750000953674316 1.9499999982118608 0.20999999344348907
			vertex 2.7750000953674316 2.2900000017881394 0.20999999344348907
		endloop
	endfacet
	facet normal 0 0 -1
		outer loop
			vertex 2.7750000953674316 2.2900000017881394 -0.20999999344348907
			vertex 2.7750000953674316 1.9499999982118608 -0.20999999344348907
			vertex -2.7750000953674316 2.2900000017881394 -0.20999999344348907
		endloop
	endfacet
	facet normal 0 0 -1
		outer loop
			vertex 2.7750000953674316 1.9499999982118608 -0.20999999344348907
			vertex -2.7750000953674316 1.9499999982118608 -0.20999999344348907
			vertex -2.7750000953674316 2.2900000017881394 -0.20999999344348907
		endloop
	endfacet
	facet normal 1 0 0
		outer loop
			vertex 3.125 0.15000000029802324 0.4300000071525574
			vertex 3.125 0.009999999701976778 0.4300000071525574
			vertex 3.125 0.15000000029802324 -0.4300000071525574
		endloop
	endfacet
	facet normal 1 0 0
		outer loop
			vertex 3.125 0.009999999701976778 0.4300000071525574
			vertex 3.125 0.009999999701976778 -0.4300000071525574
			vertex 3.125 0.15000000029802324 -0.4300000071525574
		endloop
	endfacet
	facet normal -1 0 0
		outer loop
			vertex -3.125 0.15000000029802324 -0.4300000071525574
			vertex -3.125 0.009999999701976778 -0.4300000071525574
			vertex -3.125 0.15000000029802324 0.4300000071525574
		endloop
	endfacet
	facet normal -1 0 0
		outer loop
			vertex -3.125 0.009999999701976778 -0.4300000071525574
			vertex -3.125 0.009999999701976778 0.4300000071525574
			vertex -3.125 0.15000000029802324 0.4300000071525574
		endloop
	endfacet
	facet normal 0 1 0
		outer loop
			vertex -3.125 0.15000000029802324 -0.4300000071525574
			vertex -3.125 0.15000000029802324 0.4300000071525574
			vertex 3.125 0.15000000029802324 -0.4300000071525574
		endloop
	endfacet
	facet normal 0 1 0
		outer loop
			vertex -3.125 0.15000000029802324 0.4300000071525574
			vertex 3.125 0.15000000029802324 0.4300000071525574
			vertex 3.125 0.15000000029802324 -0.4300000071525574
		endloop
	endfacet
	facet normal 0 -1 0
		outer loop
			vertex -3.125 0.009999999701976778 0.4300000071525574
			vertex -3.125 0.009999999701976778 -0.4300000071525574
			vertex 3.125 0.009999999701976778 0.4300000071525574
		endloop
	endfacet
	facet normal 0 -1 0
		outer loop
			vertex -3.125 0.009999999701976778 -0.4300000071525574
			vertex 3.125 0.009999999701976778 -0.4300000071525574
			vertex 3.125 0.009999999701976778 0.4300000071525574
		endloop
	endfacet
	facet normal 0 0 1
		outer loop
			vertex -3.125 0.15000000029802324 0.4300000071525574
			vertex -3.125 0.009999999701976778 0.4300000071525574
			vertex 3.125 0.15000000029802324 0.4300000071525574
		endloop
	endfacet
	facet normal 0 0 1
		outer loop
			vertex -3.125 0.009999999701976778 0.4300000071525574
			vertex 3.125 0.009999999701976778 0.4300000071525574
			vertex 3.125 0.15000000029802324 0.4300000071525574
		endloop
	endfacet
	facet normal 0 0 -1
		outer loop
			vertex 3.125 0.15000000029802324 -0.4300000071525574
			vertex 3.125 0.009999999701976778 -0.4300000071525574
			vertex -3.125 0.15000000029802324 -0.4300000071525574
		endloop
	endfacet
	facet normal 0 0 -1
		outer loop
			vertex 3.125 0.009999999701976778 -0.4300000071525574
			vertex -3.125 0.009999999701976778 -0.4300000071525574
			vertex -3.125 0.15000000029802324 -0.4300000071525574
		endloop
	endfacet
	facet normal 1 0 0
		outer loop
			vertex -2.279999999701977 2.3000000071525575 0.25000000417232515
			vertex -2.279999999701977 1.9399999928474427 0.25000000417232515
			vertex -2.279999999701977 2.3000000071525575 -0.21000000417232514
		endloop
	endfacet
	facet normal 1 0 0
		outer loop
			vertex -2.279999999701977 1.9399999928474427 0.25000000417232515
			vertex -2.279999999701977 1.9399999928474427 -0.21000000417232514
			vertex -2.279999999701977 2.3000000071525575 -0.21000000417232514
		endloop
	endfacet
	facet normal -1 0 0
		outer loop
			vertex -2.4200000002980233 2.3000000071525575 -0.21000000417232514
			vertex -2.4200000002980233 1.9399999928474427 -0.21000000417232514
			vertex -2.4200000002980233 2.3000000071525575 0.25000000417232515
		endloop
	endfacet
	facet normal -1 0 0
		outer loop
			vertex -2.4200000002980233 1.9399999928474427 -0.21000000417232514
			vertex -2.4200000002980233 1.9399999928474427 0.25000000417232515
			vertex -2.4200000002980233 2.3000000071525575 0.25000000417232515
		endloop
	endfacet
	facet normal 0 1 0
		outer loop
			vertex -2.4200000002980233 2.3000000071525575 -0.21000000417232514
			vertex -2.4200000002980233 2.3000000071525575 0.25000000417232515
			vertex -2.279999999701977 2.3000000071525575 -0.21000000417232514
		endloop
	endfacet
	facet normal 0 1 0
		outer loop
			vertex -2.4200000002980233 2.3000000071525575 0.25000000417232515
			vertex -2.279999999701977 2.3000000071525575 0.25000000417232515
			vertex -2.279999999701977 2.3000000071525575 -0.21000000417232514
		endloop
	endfacet
	facet normal 0 -1 0
		outer loop
			vertex -2.4200000002980233 1.9399999928474427 0.25000000417232515
			vertex -2.4200000002980233 1.9399999928474427 -0.21000000417232514
			vertex -2.279999999701977 1.9399999928474427 0.25000000417232515
		endloop
	endfacet
	facet normal 0 -1 0
		outer loop
			vertex -2.4200000002980233 1.9399999928474427 -0.21000000417232514
			vertex -2.279999999701977 1.9399999928474427 -0.21000000417232514
			vertex -2.279999999701977 1.9399999928474427 0.25000000417232515
		endloop
	endfacet
	facet normal 0 0 1
		outer loop
			vertex -2.4200000002980233 2.3000000071525575 0.25000000417232515
			vertex -2.4200000002980233 1.9399999928474427 0.25000000417232515
			vertex -2.279999999701977 2.3000000071525575 0.25000000417232515
		endloop
	endfacet
	facet normal 0 0 1
		outer loop
			vertex -2.4200000002980233 1.9399999928474427 0.25000000417232515
			vertex -2.279999999701977 1.9399999928474427 0.25000000417232515
			vertex -2.279999999701977 2.3000000071525575 0.25000000417232515
		endloop
	endfacet
	facet normal 0 0 -1
		outer loop
			vertex -2.279999999701977 2.3000000071525575 -0.21000000417232514
			vertex -2.279999999701977 1.9399999928474427 -0.21000000417232514
			vertex -2.4200000002980233 2.3000000071525575 -0.21000000417232514
		endloop
	endfacet
	facet normal 0 0 -1
		outer loop
			vertex -2.279999999701977 1.9399999928474427 -0.21000000417232514
			vertex -2.4200000002980233 1.9399999928474427 -0.21000000417232514
			vertex -2.4200000002980233 2.3000000071525575 -0.21000000417232514
		endloop
	endfacet
	facet normal 1 0 0
		outer loop
			vertex -1.4999999997019768 2.3000000071525575 0.25000000417232515
			vertex -1.4999999997019768 1.9399999928474427 0.25000000417232515
			vertex -1.4999999997019768 2.3000000071525575 -0.21000000417232514
		endloop
	endfacet
	facet normal 1 0 0
		outer loop
			vertex -1.4999999997019768 1.9399999928474427 0.25000000417232515
			vertex -1.4999999997019768 1.9399999928474427 -0.21000000417232514
			vertex -1.4999999997019768 2.3000000071525575 -0.21000000417232514
		endloop
	endfacet
	facet normal -1 0 0
		outer loop
			vertex -1.6400000002980233 2.3000000071525575 -0.21000000417232514
			vertex -1.6400000002980233 1.9399999928474427 -0.21000000417232514
			vertex -1.6400000002980233 2.3000000071525575 0.25000000417232515
		endloop
	endfacet
	facet normal -1 0 0
		outer loop
			vertex -1.6400000002980233 1.9399999928474427 -0.21000000417232514
			vertex -1.6400000002980233 1.9399999928474427 0.25000000417232515
			vertex -1.6400000002980233 2.3000000071525575 0.25000000417232515
		endloop
	endfacet
	facet normal 0 1 0
		outer loop
			vertex -1.6400000002980233 2.3000000071525575 -0.21000000417232514
			vertex -1.6400000002980233 2.3000000071525575 0.25000000417232515
			vertex -1.4999999997019768 2.3000000071525575 -0.21000000417232514
		endloop
	endfacet
	facet normal 0 1 0
		outer loop
			vertex -1.6400000002980233 2.3000000071525575 0.25000000417232515
			vertex -1.4999999997019768 2.3000000071525575 0.25000000417232515
			vertex -1.4999999997019768 2.3000000071525575 -0.21000000417232514
		endloop
	endfacet
	facet normal 0 -1 0
		outer loop
			vertex -1.6400000002980233 1.9399999928474427 0.25000000417232515
			vertex -1.6400000002980233 1.9399999928474427 -0.21000000417232514
			vertex -1.4999999997019768 1.9399999928474427 0.25000000417232515
		endloop
	endfacet
	facet normal 0 -1 0
		outer loop
			vertex -1.6400000002980233 1.9399999928474427 -0.21000000417232514
			vertex -1.4999999997019768 1.9399999928474427 -0.21000000417232514
			vertex -1.4999999997019768 1.9399999928474427 0.25000000417232515
		endloop
	endfacet
	facet normal 0 0 1
		outer loop
			vertex -1.6400000002980233 2.3000000071525575 0.25000000417232515
			vertex -1.6400000002980233 1.9399999928474427 0.25000000417232515
			vertex -1.4999999997019768 2.3000000071525575 0.25000000417232515
		endloop
	endfacet
	facet normal 0 0 1
		outer loop
			vertex -1.6400000002980233 1.9399999928474427 0.25000000417232515
			vertex -1.4999999997019768 1.9399999928474427 0.25000000417232515
			vertex -1.4999999997019768 2.3000000071525575 0.25000000417232515
		endloop
	endfacet
	facet normal 0 0 -1
		outer loop
			vertex -1.4999999997019768 2.3000000071525575 -0.21000000417232514
			vertex -1.4999999997019768 1.9399999928474427 -0.21000000417232514
			vertex -1.6400000002980233 2.3000000071525575 -0.21000000417232514
		endloop
	endfacet
	facet normal 0 0 -1
		outer loop
			vertex -1.4999999997019768 1.9399999928474427 -0.21000000417232514
			vertex -1.6400000002980233 1.9399999928474427 -0.21000000417232514
			vertex -1.6400000002980233 2.3000000071525575 -0.21000000417232514
		endloop
	endfacet
	facet normal 1 0 0
		outer loop
			vertex -0.7199999997019768 2.3000000071525575 0.25000000417232515
			vertex -0.7199999997019768 1.9399999928474427 0.25000000417232515
			vertex -0.7199999997019768 2.3000000071525575 -0.21000000417232514
		endloop
	endfacet
	facet normal 1 0 0
		outer loop
			vertex -0.7199999997019768 1.9399999928474427 0.25000000417232515
			vertex -0.7199999997019768 1.9399999928474427 -0.21000000417232514
			vertex -0.7199999997019768 2.3000000071525575 -0.21000000417232514
		endloop
	endfacet
	facet normal -1 0 0
		outer loop
			vertex -0.8600000002980233 2.3000000071525575 -0.21000000417232514
			vertex -0.8600000002980233 1.9399999928474427 -0.21000000417232514
			vertex -0.8600000002980233 2.3000000071525575 0.25000000417232515
		endloop
	endfacet
	facet normal -1 0 0
		outer loop
			vertex -0.8600000002980233 1.9399999928474427 -0.21000000417232514
			vertex -0.8600000002980233 1.9399999928474427 0.25000000417232515
			vertex -0.8600000002980233 2.3000000071525575 0.25000000417232515
		endloop
	endfacet
	facet normal 0 1 0
		outer loop
			vertex -0.8600000002980233 2.3000000071525575 -0.21000000417232514
			vertex -0.8600000002980233 2.3000000071525575 0.25000000417232515
			vertex -0.7199999997019768 2.3000000071525575 -0.21000000417232514
		endloop
	endfacet
	facet normal 0 1 0
		outer loop
			vertex -0.8600000002980233 2.3000000071525575 0.25000000417232515
			vertex -0.7199999997019768 2.3000000071525575 0.25000000417232515
			vertex -0.7199999997019768 2.3000000071525575 -0.21000000417232514
		endloop
	endfacet
	facet normal 0 -1 0
		outer loop
			vertex -0.8600000002980233 1.9399999928474427 0.25000000417232515
			vertex -0.8600000002980233 1.9399999928474427 -0.21000000417232514
			vertex -0.7199999997019768 1.9399999928474427 0.25000000417232515
		endloop
	endfacet
	facet normal 0 -1 0
		outer loop
			vertex -0.8600000002980233 1.9399999928474427 -0.21000000417232514
			vertex -0.7199999997019768 1.9399999928474427 -0.21000000417232514
			vertex -0.7199999997019768 1.9399999928474427 0.25000000417232515
		endloop
	endfacet
	facet normal 0 0 1
		outer loop
			vertex -0.8600000002980233 2.3000000071525575 0.25000000417232515
			vertex -0.8600000002980233 1.9399999928474427 0.25000000417232515
			vertex -0.7199999997019768 2.3000000071525575 0.25000000417232515
		endloop
	endfacet
	facet normal 0 0 1
		outer loop
			vertex -0.8600000002980233 1.9399999928474427 0.25000000417232515
			vertex -0.7199999997019768 1.9399999928474427 0.25000000417232515
			vertex -0.7199999997019768 2.3000000071525575 0.25000000417232515
		endloop
	endfacet
	facet normal 0 0 -1
		outer loop
			vertex -0.7199999997019768 2.3000000071525575 -0.21000000417232514
			vertex -0.7199999997019768 1.9399999928474427 -0.21000000417232514
			vertex -0.8600000002980233 2.3000000071525575 -0.21000000417232514
		endloop
	endfacet
	facet normal 0 0 -1
		outer loop
			vertex -0.7199999997019768 1.9399999928474427 -0.21000000417232514
			vertex -0.8600000002980233 1.9399999928474427 -0.21000000417232514
			vertex -0.8600000002980233 2.3000000071525575 -0.21000000417232514
		endloop
	endfacet
	facet normal 1 0 0
		outer loop
			vertex 0.06000000029802299 2.3000000071525575 0.25000000417232515
			vertex 0.06000000029802299 1.9399999928474427 0.25000000417232515
			vertex 0.06000000029802299 2.3000000071525575 -0.21000000417232514
		endloop
	endfacet
	facet normal 1 0 0
		outer loop
			vertex 0.06000000029802299 1.9399999928474427 0.25000000417232515
			vertex 0.06000000029802299 1.9399999928474427 -0.21000000417232514
			vertex 0.06000000029802299 2.3000000071525575 -0.21000000417232514
		endloop
	endfacet
	facet normal -1 0 0
		outer loop
			vertex -0.08000000029802345 2.3000000071525575 -0.21000000417232514
			vertex -0.08000000029802345 1.9399999928474427 -0.21000000417232514
			vertex -0.08000000029802345 2.3000000071525575 0.25000000417232515
		endloop
	endfacet
	facet normal -1 0 0
		outer loop
			vertex -0.08000000029802345 1.9399999928474427 -0.21000000417232514
			vertex -0.08000000029802345 1.9399999928474427 0.25000000417232515
			vertex -0.08000000029802345 2.3000000071525575 0.25000000417232515
		endloop
	endfacet
	facet normal 0 1 0
		outer loop
			vertex -0.08000000029802345 2.3000000071525575 -0.21000000417232514
			vertex -0.08000000029802345 2.3000000071525575 0.25000000417232515
			vertex 0.06000000029802299 2.3000000071525575 -0.21000000417232514
		endloop
	endfacet
	facet normal 0 1 0
		outer loop
			vertex -0.08000000029802345 2.3000000071525575 0.25000000417232515
			vertex 0.06000000029802299 2.3000000071525575 0.25000000417232515
			vertex 0.06000000029802299 2.3000000071525575 -0.21000000417232514
		endloop
	endfacet
	facet normal 0 -1 0
		outer loop
			vertex -0.08000000029802345 1.9399999928474427 0.25000000417232515
			vertex -0.08000000029802345 1.9399999928474427 -0.21000000417232514
			vertex 0.06000000029802299 1.9399999928474427 0.25000000417232515
		endloop
	endfacet
	facet normal 0 -1 0
		outer loop
			vertex -0.08000000029802345 1.9399999928474427 -0.21000000417232514
			vertex 0.06000000029802299 1.9399999928474427 -0.21000000417232514
			vertex 0.06000000029802299 1.9399999928474427 0.25000000417232515
		endloop
	endfacet
	facet normal 0 0 1
		outer loop
			vertex -0.08000000029802345 2.3000000071525575 0.25000000417232515
			vertex -0.08000000029802345 1.9399999928474427 0.25000000417232515
			vertex 0.06000000029802299 2.3000000071525575 0.25000000417232515
		endloop
	endfacet
	facet normal 0 0 1
		outer loop
			vertex -0.08000000029802345 1.9399999928474427 0.25000000417232515
			vertex 0.06000000029802299 1.9399999928474427 0.25000000417232515
			vertex 0.06000000029802299 2.3000000071525575 0.25000000417232515
		endloop
	endfacet
	facet normal 0 0 -1
		outer loop
			vertex 0.06000000029802299 2.3000000071525575 -0.21000000417232514
			vertex 0.06000000029802299 1.9399999928474427 -0.21000000417232514
			vertex -0.08000000029802345 2.3000000071525575 -0.21000000417232514
		endloop
	endfacet
	facet normal 0 0 -1
		outer loop
			vertex 0.06000000029802299 1.9399999928474427 -0.21000000417232514
			vertex -0.08000000029802345 1.9399999928474427 -0.21000000417232514
			vertex -0.08000000029802345 2.3000000071525575 -0.21000000417232514
		endloop
	endfacet
	facet normal 1 0 0
		outer loop
			vertex 0.8400000002980232 2.3000000071525575 0.25000000417232515
			vertex 0.8400000002980232 1.9399999928474427 0.25000000417232515
			vertex 0.8400000002980232 2.3000000071525575 -0.21000000417232514
		endloop
	endfacet
	facet normal 1 0 0
		outer loop
			vertex 0.8400000002980232 1.9399999928474427 0.25000000417232515
			vertex 0.8400000002980232 1.9399999928474427 -0.21000000417232514
			vertex 0.8400000002980232 2.3000000071525575 -0.21000000417232514
		endloop
	endfacet
	facet normal -1 0 0
		outer loop
			vertex 0.6999999997019768 2.3000000071525575 -0.21000000417232514
			vertex 0.6999999997019768 1.9399999928474427 -0.21000000417232514
			vertex 0.6999999997019768 2.3000000071525575 0.25000000417232515
		endloop
	endfacet
	facet normal -1 0 0
		outer loop
			vertex 0.6999999997019768 1.9399999928474427 -0.21000000417232514
			vertex 0.6999999997019768 1.9399999928474427 0.25000000417232515
			vertex 0.6999999997019768 2.3000000071525575 0.25000000417232515
		endloop
	endfacet
	facet normal 0 1 0
		outer loop
			vertex 0.6999999997019768 2.3000000071525575 -0.21000000417232514
			vertex 0.6999999997019768 2.3000000071525575 0.25000000417232515
			vertex 0.8400000002980232 2.3000000071525575 -0.21000000417232514
		endloop
	endfacet
	facet normal 0 1 0
		outer loop
			vertex 0.6999999997019768 2.3000000071525575 0.25000000417232515
			vertex 0.8400000002980232 2.3000000071525575 0.25000000417232515
			vertex 0.8400000002980232 2.3000000071525575 -0.21000000417232514
		endloop
	endfacet
	facet normal 0 -1 0
		outer loop
			vertex 0.6999999997019768 1.9399999928474427 0.25000000417232515
			vertex 0.6999999997019768 1.9399999928474427 -0.21000000417232514
			vertex 0.8400000002980232 1.9399999928474427 0.25000000417232515
		endloop
	endfacet
	facet normal 0 -1 0
		outer loop
			vertex 0.6999999997019768 1.9399999928474427 -0.21000000417232514
			vertex 0.8400000002980232 1.9399999928474427 -0.21000000417232514
			vertex 0.8400000002980232 1.9399999928474427 0.25000000417232515
		endloop
	endfacet
	facet normal 0 0 1
		outer loop
			vertex 0.6999999997019768 2.3000000071525575 0.25000000417232515
			vertex 0.6999999997019768 1.9399999928474427 0.25000000417232515
			vertex 0.8400000002980232 2.3000000071525575 0.25000000417232515
		endloop
	endfacet
	facet normal 0 0 1
		outer loop
			vertex 0.6999999997019768 1.9399999928474427 0.25000000417232515
			vertex 0.8400000002980232 1.9399999928474427 0.25000000417232515
			vertex 0.8400000002980232 2.3000000071525575 0.25000000417232515
		endloop
	endfacet
	facet normal 0 0 -1
		outer loop
			vertex 0.8400000002980232 2.3000000071525575 -0.21000000417232514
			vertex 0.8400000002980232 1.9399999928474427 -0.21000000417232514
			vertex 0.6999999997019768 2.3000000071525575 -0.21000000417232514
		endloop
	endfacet
	facet normal 0 0 -1
		outer loop
			vertex 0.8400000002980232 1.9399999928474427 -0.21000000417232514
			vertex 0.6999999997019768 1.9399999928474427 -0.21000000417232514
			vertex 0.6999999997019768 2.3000000071525575 -0.21000000417232514
		endloop
	endfacet
	facet normal 1 0 0
		outer loop
			vertex 1.6200000002980235 2.3000000071525575 0.25000000417232515
			vertex 1.6200000002980235 1.9399999928474427 0.25000000417232515
			vertex 1.6200000002980235 2.3000000071525575 -0.21000000417232514
		endloop
	endfacet
	facet normal 1 0 0
		outer loop
			vertex 1.6200000002980235 1.9399999928474427 0.25000000417232515
			vertex 1.6200000002980235 1.9399999928474427 -0.21000000417232514
			vertex 1.6200000002980235 2.3000000071525575 -0.21000000417232514
		endloop
	endfacet
	facet normal -1 0 0
		outer loop
			vertex 1.479999999701977 2.3000000071525575 -0.21000000417232514
			vertex 1.479999999701977 1.9399999928474427 -0.21000000417232514
			vertex 1.479999999701977 2.3000000071525575 0.25000000417232515
		endloop
	endfacet
	facet normal -1 0 0
		outer loop
			vertex 1.479999999701977 1.9399999928474427 -0.21000000417232514
			vertex 1.479999999701977 1.9399999928474427 0.25000000417232515
			vertex 1.479999999701977 2.3000000071525575 0.25000000417232515
		endloop
	endfacet
	facet normal 0 1 0
		outer loop
			vertex 1.479999999701977 2.3000000071525575 -0.21000000417232514
			vertex 1.479999999701977 2.3000000071525575 0.25000000417232515
			vertex 1.6200000002980235 2.3000000071525575 -0.21000000417232514
		endloop
	endfacet
	facet normal 0 1 0
		outer loop
			vertex 1.479999999701977 2.3000000071525575 0.25000000417232515
			vertex 1.6200000002980235 2.3000000071525575 0.25000000417232515
			vertex 1.6200000002980235 2.3000000071525575 -0.21000000417232514
		endloop
	endfacet
	facet normal 0 -1 0
		outer loop
			vertex 1.479999999701977 1.9399999928474427 0.25000000417232515
			vertex 1.479999999701977 1.9399999928474427 -0.21000000417232514
			vertex 1.6200000002980235 1.9399999928474427 0.25000000417232515
		endloop
	endfacet
	facet normal 0 -1 0
		outer loop
			vertex 1.479999999701977 1.9399999928474427 -0.21000000417232514
			vertex 1.6200000002980235 1.9399999928474427 -0.21000000417232514
			vertex 1.6200000002980235 1.9399999928474427 0.25000000417232515
		endloop
	endfacet
	facet normal 0 0 1
		outer loop
			vertex 1.479999999701977 2.3000000071525575 0.25000000417232515
			vertex 1.479999999701977 1.9399999928474427 0.25000000417232515
			vertex 1.6200000002980235 2.3000000071525575 0.25000000417232515
		endloop
	endfacet
	facet normal 0 0 1
		outer loop
			vertex 1.479999999701977 1.9399999928474427 0.25000000417232515
			vertex 1.6200000002980235 1.9399999928474427 0.25000000417232515
			vertex 1.6200000002980235 2.3000000071525575 0.25000000417232515
		endloop
	endfacet
	facet normal 0 0 -1
		outer loop
			vertex 1.6200000002980235 2.3000000071525575 -0.21000000417232514
			vertex 1.6200000002980235 1.9399999928474427 -0.21000000417232514
			vertex 1.479999999701977 2.3000000071525575 -0.21000000417232514
		endloop
	endfacet
	facet normal 0 0 -1
		outer loop
			vertex 1.6200000002980235 1.9399999928474427 -0.21000000417232514
			vertex 1.479999999701977 1.9399999928474427 -0.21000000417232514
			vertex 1.479999999701977 2.3000000071525575 -0.21000000417232514
		endloop
	endfacet
	facet normal 1 0 0
		outer loop
			vertex 2.400000000298023 2.3000000071525575 0.25000000417232515
			vertex 2.400000000298023 1.9399999928474427 0.25000000417232515
			vertex 2.400000000298023 2.3000000071525575 -0.21000000417232514
		endloop
	endfacet
	facet normal 1 0 0
		outer loop
			vertex 2.400000000298023 1.9399999928474427 0.25000000417232515
			vertex 2.400000000298023 1.9399999928474427 -0.21000000417232514
			vertex 2.400000000298023 2.3000000071525575 -0.21000000417232514
		endloop
	endfacet
	facet normal -1 0 0
		outer loop
			vertex 2.2599999997019764 2.3000000071525575 -0.21000000417232514
			vertex 2.2599999997019764 1.9399999928474427 -0.21000000417232514
			vertex 2.2599999997019764 2.3000000071525575 0.25000000417232515
		endloop
	endfacet
	facet normal -1 0 0
		outer loop
			vertex 2.2599999997019764 1.9399999928474427 -0.21000000417232514
			vertex 2.2599999997019764 1.9399999928474427 0.25000000417232515
			vertex 2.2599999997019764 2.3000000071525575 0.25000000417232515
		endloop
	endfacet
	facet normal 0 1 0
		outer loop
			vertex 2.2599999997019764 2.3000000071525575 -0.21000000417232514
			vertex 2.2599999997019764 2.3000000071525575 0.25000000417232515
			vertex 2.400000000298023 2.3000000071525575 -0.21000000417232514
		endloop
	endfacet
	facet normal 0 1 0
		outer loop
			vertex 2.2599999997019764 2.3000000071525575 0.25000000417232515
			vertex 2.400000000298023 2.3000000071525575 0.25000000417232515
			vertex 2.400000000298023 2.3000000071525575 -0.21000000417232514
		endloop
	endfacet
	facet normal 0 -1 0
		outer loop
			vertex 2.2599999997019764 1.9399999928474427 0.25000000417232515
			vertex 2.2599999997019764 1.9399999928474427 -0.21000000417232514
			vertex 2.400000000298023 1.9399999928474427 0.25000000417232515
		endloop
	endfacet
	facet normal 0 -1 0
		outer loop
			vertex 2.2599999997019764 1.9399999928474427 -0.21000000417232514
			vertex 2.400000000298023 1.9399999928474427 -0.21000000417232514
			vertex 2.400000000298023 1.9399999928474427 0.25000000417232515
		endloop
	endfacet
	facet normal 0 0 1
		outer loop
			vertex 2.2599999997019764 2.3000000071525575 0.25000000417232515
			vertex 2.2599999997019764 1.9399999928474427 0.25000000417232515
			vertex 2.400000000298023 2.3000000071525575 0.25000000417232515
		endloop
	endfacet
	facet normal 0 0 1
		outer loop
			vertex 2.2599999997019764 1.9399999928474427 0.25000000417232515
			vertex 2.400000000298023 1.9399999928474427 0.25000000417232515
			vertex 2.400000000298023 2.3000000071525575 0.25000000417232515
		endloop
	endfacet
	facet normal 0 0 -1
		outer loop
			vertex 2.400000000298023 2.3000000071525575 -0.21000000417232514
			vertex 2.400000000298023 1.9399999928474427 -0.21000000417232514
			vertex 2.2599999997019764 2.3000000071525575 -0.21000000417232514
		endloop
	endfacet
	facet normal 0 0 -1
		outer loop
			vertex 2.400000000298023 1.9399999928474427 -0.21000000417232514
			vertex 2.2599999997019764 1.9399999928474427 -0.21000000417232514
			vertex 2.2599999997019764 2.3000000071525575 -0.21000000417232514
		endloop
	endfacet
endsolid exported
