solid exported
	facet normal 1 0 0
		outer loop
			vertex -2.9200000017881393 6 0.07999999821186066
			vertex -2.9200000017881393 0 0.07999999821186066
			vertex -2.9200000017881393 6 -0.07999999821186066
		endloop
	endfacet
	facet normal 1 0 0
		outer loop
			vertex -2.9200000017881393 0 0.07999999821186066
			vertex -2.9200000017881393 0 -0.07999999821186066
			vertex -2.9200000017881393 6 -0.07999999821186066
		endloop
	endfacet
	facet normal -1 0 0
		outer loop
			vertex -3.0799999982118607 6 -0.07999999821186066
			vertex -3.0799999982118607 0 -0.07999999821186066
			vertex -3.0799999982118607 6 0.07999999821186066
		endloop
	endfacet
	facet normal -1 0 0
		outer loop
			vertex -3.0799999982118607 0 -0.07999999821186066
			vertex -3.0799999982118607 0 0.07999999821186066
			vertex -3.0799999982118607 6 0.07999999821186066
		endloop
	endfacet
	facet normal 0 1 0
		outer loop
			vertex -3.0799999982118607 6 -0.07999999821186066
			vertex -3.0799999982118607 6 0.07999999821186066
			vertex -2.9200000017881393 6 -0.07999999821186066
		endloop
	endfacet
	facet normal 0 1 0
		outer loop
			vertex -3.0799999982118607 6 0.07999999821186066
			vertex -2.9200000017881393 6 0.07999999821186066
			vertex -2.9200000017881393 6 -0.07999999821186066
		endloop
	endfacet
	facet normal 0 -1 0
		outer loop
			vertex -3.0799999982118607 0 0.07999999821186066
			vertex -3.0799999982118607 0 -0.07999999821186066
			vertex -2.9200000017881393 0 0.07999999821186066
		endloop
	endfacet
	facet normal 0 -1 0
		outer loop
			vertex -3.0799999982118607 0 -0.07999999821186066
			vertex -2.9200000017881393 0 -0.07999999821186066
			vertex -2.9200000017881393 0 0.07999999821186066
		endloop
	endfacet
	facet normal 0 0 1
		outer loop
			vertex -3.0799999982118607 6 0.07999999821186066
			vertex -3.0799999982118607 0 0.07999999821186066
			vertex -2.9200000017881393 6 0.07999999821186066
		endloop
	endfacet
	facet normal 0 0 1
		outer loop
			vertex -3.0799999982118607 0 0.07999999821186066
			vertex -2.9200000017881393 0 0.07999999821186066
			vertex -2.9200000017881393 6 0.07999999821186066
		endloop
	endfacet
	facet normal 0 0 -1
		outer loop
			vertex -2.9200000017881393 6 -0.07999999821186066
			vertex -2.9200000017881393 0 -0.07999999821186066
			vertex -3.0799999982118607 6 -0.07999999821186066
		endloop
	endfacet
	facet normal 0 0 -1
		outer loop
			vertex -2.9200000017881393 0 -0.07999999821186066
			vertex -3.0799999982118607 0 -0.07999999821186066
			vertex -3.0799999982118607 6 -0.07999999821186066
		endloop
	endfacet
	facet normal 1 0 0
		outer loop
			vertex 3.0799999982118607 6 0.07999999821186066
			vertex 3.0799999982118607 0 0.07999999821186066
			vertex 3.0799999982118607 6 -0.07999999821186066
		endloop
	endfacet
	facet normal 1 0 0
		outer loop
			vertex 3.0799999982118607 0 0.07999999821186066
			vertex 3.0799999982118607 0 -0.07999999821186066
			vertex 3.0799999982118607 6 -0.07999999821186066
		endloop
	endfacet
	facet normal -1 0 0
		outer loop
			vertex 2.9200000017881393 6 -0.07999999821186066
			vertex 2.9200000017881393 0 -0.07999999821186066
			vertex 2.9200000017881393 6 0.07999999821186066
		endloop
	endfacet
	facet normal -1 0 0
		outer loop
			vertex 2.9200000017881393 0 -0.07999999821186066
			vertex 2.9200000017881393 0 0.07999999821186066
			vertex 2.9200000017881393 6 0.07999999821186066
		endloop
	endfacet
	facet normal 0 1 0
		outer loop
			vertex 2.9200000017881393 6 -0.07999999821186066
			vertex 2.9200000017881393 6 0.07999999821186066
			vertex 3.0799999982118607 6 -0.07999999821186066
		endloop
	endfacet
	facet normal 0 1 0
		outer loop
			vertex 2.9200000017881393 6 0.07999999821186066
			vertex 3.0799999982118607 6 0.07999999821186066
			vertex 3.0799999982118607 6 -0.07999999821186066
		endloop
	endfacet
	facet normal 0 -1 0
		outer loop
			vertex 2.9200000017881393 0 0.07999999821186066
			vertex 2.9200000017881393 0 -0.07999999821186066
			vertex 3.0799999982118607 0 0.07999999821186066
		endloop
	endfacet
	facet normal 0 -1 0
		outer loop
			vertex 2.9200000017881393 0 -0.07999999821186066
			vertex 3.0799999982118607 0 -0.07999999821186066
			vertex 3.0799999982118607 0 0.07999999821186066
		endloop
	endfacet
	facet normal 0 0 1
		outer loop
			vertex 2.9200000017881393 6 0.07999999821186066
			vertex 2.9200000017881393 0 0.07999999821186066
			vertex 3.0799999982118607 6 0.07999999821186066
		endloop
	endfacet
	facet normal 0 0 1
		outer loop
			vertex 2.9200000017881393 0 0.07999999821186066
			vertex 3.0799999982118607 0 0.07999999821186066
			vertex 3.0799999982118607 6 0.07999999821186066
		endloop
	endfacet
	facet normal 0 0 -1
		outer loop
			vertex 3.0799999982118607 6 -0.07999999821186066
			vertex 3.0799999982118607 0 -0.07999999821186066
			vertex 2.9200000017881393 6 -0.07999999821186066
		endloop
	endfacet
	facet normal 0 0 -1
		outer loop
			vertex 3.0799999982118607 0 -0.07999999821186066
			vertex 2.9200000017881393 0 -0.07999999821186066
			vertex 2.9200000017881393 6 -0.07999999821186066
		endloop
	endfacet
	facet normal 1 0 0
		outer loop
			vertex 3.0999999046325684 5.92999999821186 0.07999999821186066
			vertex 3.0999999046325684 5.770000001788139 0.07999999821186066
			vertex 3.0999999046325684 5.92999999821186 -0.07999999821186066
		endloop
	endfacet
	facet normal 1 0 0
		outer loop
			vertex 3.0999999046325684 5.770000001788139 0.07999999821186066
			vertex 3.0999999046325684 5.770000001788139 -0.07999999821186066
			vertex 3.0999999046325684 5.92999999821186 -0.07999999821186066
		endloop
	endfacet
	facet normal -1 0 0
		outer loop
			vertex -3.0999999046325684 5.92999999821186 -0.07999999821186066
			vertex -3.0999999046325684 5.770000001788139 -0.07999999821186066
			vertex -3.0999999046325684 5.92999999821186 0.07999999821186066
		endloop
	endfacet
	facet normal -1 0 0
		outer loop
			vertex -3.0999999046325684 5.770000001788139 -0.07999999821186066
			vertex -3.0999999046325684 5.770000001788139 0.07999999821186066
			vertex -3.0999999046325684 5.92999999821186 0.07999999821186066
		endloop
	endfacet
	facet normal 0 1 0
		outer loop
			vertex -3.0999999046325684 5.92999999821186 -0.07999999821186066
			vertex -3.0999999046325684 5.92999999821186 0.07999999821186066
			vertex 3.0999999046325684 5.92999999821186 -0.07999999821186066
		endloop
	endfacet
	facet normal 0 1 0
		outer loop
			vertex -3.0999999046325684 5.92999999821186 0.07999999821186066
			vertex 3.0999999046325684 5.92999999821186 0.07999999821186066
			vertex 3.0999999046325684 5.92999999821186 -0.07999999821186066
		endloop
	endfacet
	facet normal 0 -1 0
		outer loop
			vertex -3.0999999046325684 5.770000001788139 0.07999999821186066
			vertex -3.0999999046325684 5.770000001788139 -0.07999999821186066
			vertex 3.0999999046325684 5.770000001788139 0.07999999821186066
		endloop
	endfacet
	facet normal 0 -1 0
		outer loop
			vertex -3.0999999046325684 5.770000001788139 -0.07999999821186066
			vertex 3.0999999046325684 5.770000001788139 -0.07999999821186066
			vertex 3.0999999046325684 5.770000001788139 0.07999999821186066
		endloop
	endfacet
	facet normal 0 0 1
		outer loop
			vertex -3.0999999046325684 5.92999999821186 0.07999999821186066
			vertex -3.0999999046325684 5.770000001788139 0.07999999821186066
			vertex 3.0999999046325684 5.92999999821186 0.07999999821186066
		endloop
	endfacet
	facet normal 0 0 1
		outer loop
			vertex -3.0999999046325684 5.770000001788139 0.07999999821186066
			vertex 3.0999999046325684 5.770000001788139 0.07999999821186066
			vertex 3.0999999046325684 5.92999999821186 0.07999999821186066
		endloop
	endfacet
	facet normal 0 0 -1
		outer loop
			vertex 3.0999999046325684 5.92999999821186 -0.07999999821186066
			vertex 3.0999999046325684 5.770000001788139 -0.07999999821186066
			vertex -3.0999999046325684 5.92999999821186 -0.07999999821186066
		endloop
	endfacet
	facet normal 0 0 -1
		outer loop
			vertex 3.0999999046325684 5.770000001788139 -0.07999999821186066
			vertex -3.0999999046325684 5.770000001788139 -0.07999999821186066
			vertex -3.0999999046325684 5.92999999821186 -0.07999999821186066
		endloop
	endfacet
	facet normal 1 0 0
		outer loop
			vertex 1.6000000953674316 5.649999976158142 0.07999999910593034
			vertex 1.6000000953674316 3.850000023841858 0.07999999910593034
			vertex 1.6000000953674316 5.649999976158142 8.940696724635266e-10
		endloop
	endfacet
	facet normal 1 0 0
		outer loop
			vertex 1.6000000953674316 3.850000023841858 0.07999999910593034
			vertex 1.6000000953674316 3.850000023841858 8.940696724635266e-10
			vertex 1.6000000953674316 5.649999976158142 8.940696724635266e-10
		endloop
	endfacet
	facet normal -1 0 0
		outer loop
			vertex -2.7000000953674315 5.649999976158142 8.940696724635266e-10
			vertex -2.7000000953674315 3.850000023841858 8.940696724635266e-10
			vertex -2.7000000953674315 5.649999976158142 0.07999999910593034
		endloop
	endfacet
	facet normal -1 0 0
		outer loop
			vertex -2.7000000953674315 3.850000023841858 8.940696724635266e-10
			vertex -2.7000000953674315 3.850000023841858 0.07999999910593034
			vertex -2.7000000953674315 5.649999976158142 0.07999999910593034
		endloop
	endfacet
	facet normal 0 1 0
		outer loop
			vertex -2.7000000953674315 5.649999976158142 8.940696724635266e-10
			vertex -2.7000000953674315 5.649999976158142 0.07999999910593034
			vertex 1.6000000953674316 5.649999976158142 8.940696724635266e-10
		endloop
	endfacet
	facet normal 0 1 0
		outer loop
			vertex -2.7000000953674315 5.649999976158142 0.07999999910593034
			vertex 1.6000000953674316 5.649999976158142 0.07999999910593034
			vertex 1.6000000953674316 5.649999976158142 8.940696724635266e-10
		endloop
	endfacet
	facet normal 0 -1 0
		outer loop
			vertex -2.7000000953674315 3.850000023841858 0.07999999910593034
			vertex -2.7000000953674315 3.850000023841858 8.940696724635266e-10
			vertex 1.6000000953674316 3.850000023841858 0.07999999910593034
		endloop
	endfacet
	facet normal 0 -1 0
		outer loop
			vertex -2.7000000953674315 3.850000023841858 8.940696724635266e-10
			vertex 1.6000000953674316 3.850000023841858 8.940696724635266e-10
			vertex 1.6000000953674316 3.850000023841858 0.07999999910593034
		endloop
	endfacet
	facet normal 0 0 1
		outer loop
			vertex -2.7000000953674315 5.649999976158142 0.07999999910593034
			vertex -2.7000000953674315 3.850000023841858 0.07999999910593034
			vertex 1.6000000953674316 5.649999976158142 0.07999999910593034
		endloop
	endfacet
	facet normal 0 0 1
		outer loop
			vertex -2.7000000953674315 3.850000023841858 0.07999999910593034
			vertex 1.6000000953674316 3.850000023841858 0.07999999910593034
			vertex 1.6000000953674316 5.649999976158142 0.07999999910593034
		endloop
	endfacet
	facet normal 0 0 -1
		outer loop
			vertex 1.6000000953674316 5.649999976158142 8.940696724635266e-10
			vertex 1.6000000953674316 3.850000023841858 8.940696724635266e-10
			vertex -2.7000000953674315 5.649999976158142 8.940696724635266e-10
		endloop
	endfacet
	facet normal 0 0 -1
		outer loop
			vertex 1.6000000953674316 3.850000023841858 8.940696724635266e-10
			vertex -2.7000000953674315 3.850000023841858 8.940696724635266e-10
			vertex -2.7000000953674315 5.649999976158142 8.940696724635266e-10
		endloop
	endfacet
	facet normal 1 0 0
		outer loop
			vertex 1.7 3.8899999986588956 0.1399999986588955
			vertex 1.7 3.7700000013411046 0.1399999986588955
			vertex 1.7 3.8899999986588956 0.02000000134110451
		endloop
	endfacet
	facet normal 1 0 0
		outer loop
			vertex 1.7 3.7700000013411046 0.1399999986588955
			vertex 1.7 3.7700000013411046 0.02000000134110451
			vertex 1.7 3.8899999986588956 0.02000000134110451
		endloop
	endfacet
	facet normal -1 0 0
		outer loop
			vertex -2.8 3.8899999986588956 0.02000000134110451
			vertex -2.8 3.7700000013411046 0.02000000134110451
			vertex -2.8 3.8899999986588956 0.1399999986588955
		endloop
	endfacet
	facet normal -1 0 0
		outer loop
			vertex -2.8 3.7700000013411046 0.02000000134110451
			vertex -2.8 3.7700000013411046 0.1399999986588955
			vertex -2.8 3.8899999986588956 0.1399999986588955
		endloop
	endfacet
	facet normal 0 1 0
		outer loop
			vertex -2.8 3.8899999986588956 0.02000000134110451
			vertex -2.8 3.8899999986588956 0.1399999986588955
			vertex 1.7 3.8899999986588956 0.02000000134110451
		endloop
	endfacet
	facet normal 0 1 0
		outer loop
			vertex -2.8 3.8899999986588956 0.1399999986588955
			vertex 1.7 3.8899999986588956 0.1399999986588955
			vertex 1.7 3.8899999986588956 0.02000000134110451
		endloop
	endfacet
	facet normal 0 -1 0
		outer loop
			vertex -2.8 3.7700000013411046 0.1399999986588955
			vertex -2.8 3.7700000013411046 0.02000000134110451
			vertex 1.7 3.7700000013411046 0.1399999986588955
		endloop
	endfacet
	facet normal 0 -1 0
		outer loop
			vertex -2.8 3.7700000013411046 0.02000000134110451
			vertex 1.7 3.7700000013411046 0.02000000134110451
			vertex 1.7 3.7700000013411046 0.1399999986588955
		endloop
	endfacet
	facet normal 0 0 1
		outer loop
			vertex -2.8 3.8899999986588956 0.1399999986588955
			vertex -2.8 3.7700000013411046 0.1399999986588955
			vertex 1.7 3.8899999986588956 0.1399999986588955
		endloop
	endfacet
	facet normal 0 0 1
		outer loop
			vertex -2.8 3.7700000013411046 0.1399999986588955
			vertex 1.7 3.7700000013411046 0.1399999986588955
			vertex 1.7 3.8899999986588956 0.1399999986588955
		endloop
	endfacet
	facet normal 0 0 -1
		outer loop
			vertex 1.7 3.8899999986588956 0.02000000134110451
			vertex 1.7 3.7700000013411046 0.02000000134110451
			vertex -2.8 3.8899999986588956 0.02000000134110451
		endloop
	endfacet
	facet normal 0 0 -1
		outer loop
			vertex 1.7 3.7700000013411046 0.02000000134110451
			vertex -2.8 3.7700000013411046 0.02000000134110451
			vertex -2.8 3.8899999986588956 0.02000000134110451
		endloop
	endfacet
	facet normal 1 0 0
		outer loop
			vertex -2.7400000013411043 5.649999976158142 0.1399999986588955
			vertex -2.7400000013411043 3.850000023841858 0.1399999986588955
			vertex -2.7400000013411043 5.649999976158142 0.02000000134110451
		endloop
	endfacet
	facet normal 1 0 0
		outer loop
			vertex -2.7400000013411043 3.850000023841858 0.1399999986588955
			vertex -2.7400000013411043 3.850000023841858 0.02000000134110451
			vertex -2.7400000013411043 5.649999976158142 0.02000000134110451
		endloop
	endfacet
	facet normal -1 0 0
		outer loop
			vertex -2.8599999986588953 5.649999976158142 0.02000000134110451
			vertex -2.8599999986588953 3.850000023841858 0.02000000134110451
			vertex -2.8599999986588953 5.649999976158142 0.1399999986588955
		endloop
	endfacet
	facet normal -1 0 0
		outer loop
			vertex -2.8599999986588953 3.850000023841858 0.02000000134110451
			vertex -2.8599999986588953 3.850000023841858 0.1399999986588955
			vertex -2.8599999986588953 5.649999976158142 0.1399999986588955
		endloop
	endfacet
	facet normal 0 1 0
		outer loop
			vertex -2.8599999986588953 5.649999976158142 0.02000000134110451
			vertex -2.8599999986588953 5.649999976158142 0.1399999986588955
			vertex -2.7400000013411043 5.649999976158142 0.02000000134110451
		endloop
	endfacet
	facet normal 0 1 0
		outer loop
			vertex -2.8599999986588953 5.649999976158142 0.1399999986588955
			vertex -2.7400000013411043 5.649999976158142 0.1399999986588955
			vertex -2.7400000013411043 5.649999976158142 0.02000000134110451
		endloop
	endfacet
	facet normal 0 -1 0
		outer loop
			vertex -2.8599999986588953 3.850000023841858 0.1399999986588955
			vertex -2.8599999986588953 3.850000023841858 0.02000000134110451
			vertex -2.7400000013411043 3.850000023841858 0.1399999986588955
		endloop
	endfacet
	facet normal 0 -1 0
		outer loop
			vertex -2.8599999986588953 3.850000023841858 0.02000000134110451
			vertex -2.7400000013411043 3.850000023841858 0.02000000134110451
			vertex -2.7400000013411043 3.850000023841858 0.1399999986588955
		endloop
	endfacet
	facet normal 0 0 1
		outer loop
			vertex -2.8599999986588953 5.649999976158142 0.1399999986588955
			vertex -2.8599999986588953 3.850000023841858 0.1399999986588955
			vertex -2.7400000013411043 5.649999976158142 0.1399999986588955
		endloop
	endfacet
	facet normal 0 0 1
		outer loop
			vertex -2.8599999986588953 3.850000023841858 0.1399999986588955
			vertex -2.7400000013411043 3.850000023841858 0.1399999986588955
			vertex -2.7400000013411043 5.649999976158142 0.1399999986588955
		endloop
	endfacet
	facet normal 0 0 -1
		outer loop
			vertex -2.7400000013411043 5.649999976158142 0.02000000134110451
			vertex -2.7400000013411043 3.850000023841858 0.02000000134110451
			vertex -2.8599999986588953 5.649999976158142 0.02000000134110451
		endloop
	endfacet
	facet normal 0 0 -1
		outer loop
			vertex -2.7400000013411043 3.850000023841858 0.02000000134110451
			vertex -2.8599999986588953 3.850000023841858 0.02000000134110451
			vertex -2.8599999986588953 5.649999976158142 0.02000000134110451
		endloop
	endfacet
	facet normal 1 0 0
		outer loop
			vertex 1.7599999986588954 5.649999976158142 0.1399999986588955
			vertex 1.7599999986588954 3.850000023841858 0.1399999986588955
			vertex 1.7599999986588954 5.649999976158142 0.02000000134110451
		endloop
	endfacet
	facet normal 1 0 0
		outer loop
			vertex 1.7599999986588954 3.850000023841858 0.1399999986588955
			vertex 1.7599999986588954 3.850000023841858 0.02000000134110451
			vertex 1.7599999986588954 5.649999976158142 0.02000000134110451
		endloop
	endfacet
	facet normal -1 0 0
		outer loop
			vertex 1.6400000013411045 5.649999976158142 0.02000000134110451
			vertex 1.6400000013411045 3.850000023841858 0.02000000134110451
			vertex 1.6400000013411045 5.649999976158142 0.1399999986588955
		endloop
	endfacet
	facet normal -1 0 0
		outer loop
			vertex 1.6400000013411045 3.850000023841858 0.02000000134110451
			vertex 1.6400000013411045 3.850000023841858 0.1399999986588955
			vertex 1.6400000013411045 5.649999976158142 0.1399999986588955
		endloop
	endfacet
	facet normal 0 1 0
		outer loop
			vertex 1.6400000013411045 5.649999976158142 0.02000000134110451
			vertex 1.6400000013411045 5.649999976158142 0.1399999986588955
			vertex 1.7599999986588954 5.649999976158142 0.02000000134110451
		endloop
	endfacet
	facet normal 0 1 0
		outer loop
			vertex 1.6400000013411045 5.649999976158142 0.1399999986588955
			vertex 1.7599999986588954 5.649999976158142 0.1399999986588955
			vertex 1.7599999986588954 5.649999976158142 0.02000000134110451
		endloop
	endfacet
	facet normal 0 -1 0
		outer loop
			vertex 1.6400000013411045 3.850000023841858 0.1399999986588955
			vertex 1.6400000013411045 3.850000023841858 0.02000000134110451
			vertex 1.7599999986588954 3.850000023841858 0.1399999986588955
		endloop
	endfacet
	facet normal 0 -1 0
		outer loop
			vertex 1.6400000013411045 3.850000023841858 0.02000000134110451
			vertex 1.7599999986588954 3.850000023841858 0.02000000134110451
			vertex 1.7599999986588954 3.850000023841858 0.1399999986588955
		endloop
	endfacet
	facet normal 0 0 1
		outer loop
			vertex 1.6400000013411045 5.649999976158142 0.1399999986588955
			vertex 1.6400000013411045 3.850000023841858 0.1399999986588955
			vertex 1.7599999986588954 5.649999976158142 0.1399999986588955
		endloop
	endfacet
	facet normal 0 0 1
		outer loop
			vertex 1.6400000013411045 3.850000023841858 0.1399999986588955
			vertex 1.7599999986588954 3.850000023841858 0.1399999986588955
			vertex 1.7599999986588954 5.649999976158142 0.1399999986588955
		endloop
	endfacet
	facet normal 0 0 -1
		outer loop
			vertex 1.7599999986588954 5.649999976158142 0.02000000134110451
			vertex 1.7599999986588954 3.850000023841858 0.02000000134110451
			vertex 1.6400000013411045 5.649999976158142 0.02000000134110451
		endloop
	endfacet
	facet normal 0 0 -1
		outer loop
			vertex 1.7599999986588954 3.850000023841858 0.02000000134110451
			vertex 1.6400000013411045 3.850000023841858 0.02000000134110451
			vertex 1.6400000013411045 5.649999976158142 0.02000000134110451
		endloop
	endfacet
endsolid exported
